# Blender v2.93.10 OBJ File: 'lays.blend'
# www.blender.org
mtllib lays.mtl
o Cube
v 0.814036 0.084538 -1.000000
v 0.814036 0.084538 1.000000
v 0.814036 0.704440 -1.000000
v 0.814036 0.704440 1.000000
v -0.814036 0.084538 -1.000000
v -0.814036 0.084538 1.000000
v -0.814036 0.704440 -1.000000
v -0.814036 0.704440 1.000000
v -1.038707 0.394489 1.000000
v 1.038707 0.394489 -1.000000
v -1.038707 0.394489 -1.000000
v 1.038707 0.394489 1.000000
v -1.181705 0.394489 1.395980
v 1.181705 0.394489 -1.395980
v -1.181705 0.394489 -1.395980
v 1.181705 0.394489 1.395980
v -0.533334 0.002439 1.000000
v -0.533334 0.786539 -1.000000
v -0.533334 0.786539 1.000000
v -0.533334 0.002439 -1.000000
v -0.774220 0.394489 -1.282321
v -0.774220 0.394489 1.282321
v 0.523977 0.786539 1.000000
v 0.523977 0.002439 -1.000000
v 0.760638 0.394489 1.282321
v 0.523977 0.002439 1.000000
v 0.523977 0.786539 -1.000000
v 0.760638 0.394489 -1.282321
vt 0.294768 0.147496
vt 0.294768 0.852504
vt 0.186751 0.852504
vt 0.186751 0.147496
vt 0.100295 0.147496
vt 0.100295 0.852504
vt 0.186751 0.852504
vt 0.186751 0.147496
vt 0.899705 0.147496
vt 0.899705 0.852504
vt 0.813249 0.852504
vt 0.813249 0.147496
vt 0.701632 0.147496
vt 0.701632 0.852504
vt 0.813249 0.852504
vt 0.813249 0.147496
vt 0.701632 0.852504
vt 0.954732 0.992088
vt 0.792701 0.992088
vt 0.045268 0.007912
vt 0.045268 0.992088
vt 0.954732 0.007912
vt 0.294768 0.147496
vt 0.202072 0.007912
vt 0.701632 0.147496
vt 0.792701 0.007912
vt 0.202072 0.992088
vt 0.294768 0.852504
vn -0.0750 0.9013 0.4265
vn -0.0750 0.9013 -0.4265
vn -0.4216 0.8570 -0.2961
vn -0.4216 0.8570 0.2961
vn -0.9828 0.0000 -0.1845
vn -0.9828 0.0000 0.1845
vn -0.4216 -0.8570 -0.2961
vn -0.4216 -0.8570 0.2961
vn 0.9828 0.0000 -0.1845
vn 0.9828 0.0000 0.1845
vn 0.4201 0.8581 -0.2954
vn 0.4201 0.8581 0.2954
vn 0.0725 -0.9016 0.4264
vn 0.0725 -0.9016 -0.4264
vn 0.4201 -0.8581 -0.2954
vn 0.4201 -0.8581 0.2954
vn 0.0725 0.9016 -0.4264
vn 0.7908 0.0000 -0.6121
vn -0.0342 0.0000 -0.9994
vn -0.7931 0.0000 0.6090
vn -0.7931 0.0000 -0.6090
vn 0.7908 0.0000 0.6121
vn -0.0750 -0.9013 0.4265
vn 0.0356 0.0000 0.9994
vn 0.0725 0.9016 0.4264
vn -0.0342 0.0000 0.9994
vn 0.0356 0.0000 -0.9994
vn -0.0750 -0.9013 -0.4265
usemtl Material
s 1
f 19/1/1 18/2/2 7/3/3 8/4/4
f 9/5/5 11/6/6 5/7/7 6/8/8
f 12/9/9 10/10/10 3/11/11 4/12/12
f 26/13/13 24/14/14 1/15/15 2/16/16
f 2/16/16 1/15/15 10/10/10 12/9/9
f 8/4/4 7/3/3 11/6/6 9/5/5
f 27/17/17 3/11/11 14/18/18 28/19/19
f 10/10/10 1/15/15 14/18/18
f 9/5/5 6/8/8 13/20/20
f 24/14/14 28/19/19 14/18/18 1/15/15
f 10/10/10 14/18/18 3/11/11
f 8/4/4 9/5/5 13/20/20
f 11/6/6 7/3/3 15/21/21
f 2/16/16 12/9/9 16/22/22
f 12/9/9 4/12/12 16/22/22
f 5/7/7 11/6/6 15/21/21
f 17/23/23 22/24/24 13/20/20 6/8/8
f 19/1/1 8/4/4 13/20/20 22/24/24
f 23/25/25 19/1/1 22/24/24 25/26/26
f 26/13/13 25/26/26 22/24/24 17/23/23
f 5/7/7 15/21/21 21/27/27 20/28/28
f 7/3/3 18/2/2 21/27/27 15/21/21
f 6/8/8 5/7/7 20/28/28 17/23/23
f 23/25/25 27/17/17 18/2/2 19/1/1
f 4/12/12 3/11/11 27/17/17 23/25/25
f 2/16/16 16/22/22 25/26/26 26/13/13
f 4/12/12 23/25/25 25/26/26 16/22/22
f 20/28/28 21/27/27 28/19/19 24/14/14
f 18/2/2 27/17/17 28/19/19 21/27/27
f 17/23/23 20/28/28 24/14/14 26/13/13
